PathFileType	4	(X/Y/Z)	C:/Users/beibeiliu/ov580/test_trc/User2\sequence.19_training_dense_left.trc
DataRate	CameraRate	NumFrames	NumMarkers	Units	OrigDataRate	OrigDataStartFrame	OrigNumFrames
120	120	7	19	mm	120	126	500
Frame#	Time	ThumbCMC			ThumbMCP			ThumbIP			ThumbTip			IndexMCP			IndexPIP			IndexTip			MiddleMCP			MiddlePIP			MiddleTip			RingMCP			RingPIP			RingTip			PinkyMCP			PinkyPIP			PinkyTip			BackHand1			BackHand2			BackHand3	
		X0	Y0	Z0	X1	Y1	Z1	X2	Y2	Z2	X3	Y3	Z3	X4	Y4	Z4	X5	Y5	Z5	X6	Y6	Z6	X7	Y7	Z7	X8	Y8	Z8	X9	Y9	Z9	X10	Y10	Z10	X11	Y11	Z11	X12	Y12	Z12	X13	Y13	Z13	X14	Y14	Z14	X15	Y15	Z15	X16	Y16	Z16	X17	Y17	Z17	X18	Y18	Z18	
125	1.04167	-155.102	-18.5397	51.8606	-131.91	-31.8007	35.8858	-113.448	-44.3983	8.64522	-106.043	-55.5072	-13.1871	-172.035	1.53757	-27.5245	-168.897	-0.769469	-57.8215	-169.699	-13.2463	-87.3349	-196.532	1.73316	-39.9888	-197.616	-6.14964	-72.0068	-196.18	-22.6055	-101.98	-222.715	-7.80377	-31.999	-218.827	-13.3491	-64.0219	-218.848	-27.1048	-90.4849	-238.3	-22.6774	-15.8826	-235.617	-25.0738	-45.5314	-234.786	-30.4447	-69.6354	-224.535	-2.88325	25.2377	-223.837	1.10869	57.2031	-188.523	4.55599	42.832	
126	1.05	-155.489	-19.0092	52.8509	-135.282	-30.3997	36.3871	-113.258	-41.9694	5.68827	-107.411	-53.2681	-15.0298	-173.426	4.35376	-31.5978	-172.166	0.307395	-58.5262	-176.187	-14.3816	-88.4251	-198.834	3.521	-34.0788	-193.927	-2.12819	-67.8089	-192.694	-20.1212	-97.8123	-220.88	-5.05971	-36.0194	-218.062	-11.3715	-61.543	-213.556	-23.8177	-87.6105	-238.39	-19.1341	-17.1316	-230.853	-21.7995	-42.1855	-227.937	-28.3228	-69.7218	-223.599	0.748515	24.0078	-224.34	-0.757121	61.5254	-191.311	7.17991	41.3931	
127	1.05833	-156.404	-17.1679	54.4625	-130.882	-29.8652	37.7185	-116.806	-40.6599	8.37782	-106.006	-51.0606	-18.0088	-176.983	4.84903	-29.6888	-174.257	1.31005	-56.5835	-177.964	-12.5895	-87.0513	-194.592	5.79127	-37.7107	-194.722	-3.12352	-70.0248	-194.016	-22.384	-99.3847	-217.986	-3.19785	-33.8829	-218.023	-9.6369	-60.1673	-208.148	-23.2951	-90.1917	-237.082	-17.6047	-17.8953	-233.592	-21.1657	-44.3493	-224.079	-26.261	-70.0114	-222.598	0.671156	29.7594	-224.889	2.79203	58.1003	-192.387	7.90568	41.8543	
128	1.06667	-157.77	-16.8814	55.3588	-132.534	-29.1732	37.7898	-116.243	-40.3169	8.03441	-107.323	-51.7016	-12.7481	-177.647	5.41303	-26.0707	-176.32	1.31919	-57.6412	-174.208	-9.87604	-81.8469	-197.662	5.62382	-37.8902	-194.227	-1.23452	-70.0405	-195.561	-22.051	-97.5288	-218.781	-2.45656	-35.2185	-216.938	-7.95115	-59.1896	-208.323	-23.8365	-89.6129	-233.899	-17.2419	-15.6492	-231.332	-20.8487	-45.705	-220.002	-25.8143	-71.4297	-224.167	0.507142	26.9471	-226.956	2.62231	61.2639	-190.36	8.86116	46.4692	
129	1.075	-157.312	-16.4238	55.3368	-134.26	-29.1685	37.0481	-115.885	-39.6578	6.37921	-110.048	-50.4757	-10.9007	-173.835	6.70211	-24.7093	-174.399	2.06782	-59.1234	-174.341	-8.51819	-81.9729	-200.211	6.34718	-34.6418	-194.714	-1.41129	-69.9137	-194.824	-20.3491	-97.75	-219.228	-2.31811	-33.8987	-217.619	-7.59981	-60.9809	-209.684	-23.0499	-88.0554	-235.976	-15.9381	-17.4612	-228.131	-19.6674	-44.7621	-219.684	-23.4261	-70.6899	-224.3	2.00824	28.1526	-224.981	3.70123	60.8555	-188.904	8.83747	44.2825	
130	1.08333	-157.483	-15.9399	53.4973	-132.103	-27.7633	35.0179	-115.268	-40.9063	8.03836	-106.559	-51.1893	-12.6465	-172.736	7.08149	-24.5519	-175.629	3.19416	-57.2355	-176.959	-10.569	-84.6677	-195.618	7.74701	-35.0927	-194.69	0.0798049	-68.1969	-192.967	-19.5564	-95.7807	-219.968	-0.892898	-29.4338	-212.324	-7.18656	-62.7418	-207.194	-23.4131	-89.7093	-232.121	-15.1986	-18.7926	-226.613	-19.4678	-43.7135	-220.896	-24.3687	-69.6919	-225.44	3.92788	24.6948	-226.074	1.87428	59.7231	-189.931	9.08927	47.1798	
131	1.09167	-159.564	-17.032	55.6579	-134.32	-28.8858	36.8462	-115.124	-41.0744	12.0113	-108.216	-52.7164	-11.3698	-174.502	7.32921	-26.7907	-174.73	4.70583	-53.9985	-179.164	-9.49597	-81.1323	-196.666	8.68774	-36.2969	-194.608	-0.212864	-68.8617	-194.951	-21.7801	-97.8926	-218.845	-1.3616	-31.4248	-216.952	-6.7499	-62.1425	-211.537	-22.5996	-86.8835	-230.566	-14.9678	-16.6857	-228.862	-19.8754	-44.7191	-223.113	-23.2961	-72.3275	-226.749	2.0222	27.978	-224.606	4.50556	60.3996	-191.579	8.55372	47.6062	
